<svg width="28" height="28" viewBox="0 0 28 28" fill="none" xmlns="http://www.w3.org/2000/svg">
<path d="M7 11.6668V9.3335C7 5.47183 8.16667 2.3335 14 2.3335C19.8333 2.3335 21 5.47183 21 9.3335V11.6668" stroke="url(#paint0_linear_7224_2379)" stroke-width="3" stroke-linecap="round" stroke-linejoin="round"/>
<path d="M14 21.5833C15.6108 21.5833 16.9166 20.2775 16.9166 18.6667C16.9166 17.0558 15.6108 15.75 14 15.75C12.3891 15.75 11.0833 17.0558 11.0833 18.6667C11.0833 20.2775 12.3891 21.5833 14 21.5833Z" stroke="url(#paint1_linear_7224_2379)" stroke-width="3" stroke-linecap="round" stroke-linejoin="round"/>
<path d="M19.8333 25.6665H8.16665C3.49998 25.6665 2.33331 24.4998 2.33331 19.8332V17.4998C2.33331 12.8332 3.49998 11.6665 8.16665 11.6665H19.8333C24.5 11.6665 25.6666 12.8332 25.6666 17.4998V19.8332C25.6666 24.4998 24.5 25.6665 19.8333 25.6665Z" stroke="url(#paint2_linear_7224_2379)" stroke-width="3" stroke-linecap="round" stroke-linejoin="round"/>
<defs>
<linearGradient id="paint0_linear_7224_2379" x1="14" y1="2.3335" x2="14" y2="11.6668" gradientUnits="userSpaceOnUse">
<stop stop-color="#86FA9A"/>
<stop offset="1" stop-color="#41C495"/>
</linearGradient>
<linearGradient id="paint1_linear_7224_2379" x1="14" y1="15.75" x2="14" y2="21.5833" gradientUnits="userSpaceOnUse">
<stop stop-color="#86FA9A"/>
<stop offset="1" stop-color="#41C495"/>
</linearGradient>
<linearGradient id="paint2_linear_7224_2379" x1="14" y1="11.6665" x2="14" y2="25.6665" gradientUnits="userSpaceOnUse">
<stop stop-color="#86FA9A"/>
<stop offset="1" stop-color="#41C495"/>
</linearGradient>
</defs>
</svg>
