<svg width="82" height="82" viewBox="0 0 82 82" fill="none" xmlns="http://www.w3.org/2000/svg">
<rect x="0.5" y="0.5" width="80.6" height="80.6" rx="40.3" fill="black"/>
<rect x="0.5" y="0.5" width="80.6" height="80.6" rx="40.3" stroke="black"/>
<path d="M57.8 34.8838V27.1658C57.8 24.7688 56.712 23.7998 54.009 23.7998H47.141C44.438 23.7998 43.35 24.7688 43.35 27.1658V34.8668C43.35 37.2808 44.438 38.2328 47.141 38.2328H54.009C56.712 38.2498 57.8 37.2808 57.8 34.8838Z" stroke="white" stroke-width="2.55" stroke-linecap="round" stroke-linejoin="round"/>
<path d="M57.8 54.0091V47.1411C57.8 44.4381 56.712 43.3501 54.009 43.3501H47.141C44.438 43.3501 43.35 44.4381 43.35 47.1411V54.0091C43.35 56.7121 44.438 57.8001 47.141 57.8001H54.009C56.712 57.8001 57.8 56.7121 57.8 54.0091Z" stroke="white" stroke-width="2.55" stroke-linecap="round" stroke-linejoin="round"/>
<path d="M38.25 34.8838V27.1658C38.25 24.7688 37.1621 23.7998 34.459 23.7998H27.591C24.888 23.7998 23.8 24.7688 23.8 27.1658V34.8668C23.8 37.2808 24.888 38.2328 27.591 38.2328H34.459C37.1621 38.2498 38.25 37.2808 38.25 34.8838Z" stroke="white" stroke-width="2.55" stroke-linecap="round" stroke-linejoin="round"/>
<path d="M38.25 54.0091V47.1411C38.25 44.4381 37.1621 43.3501 34.459 43.3501H27.591C24.888 43.3501 23.8 44.4381 23.8 47.1411V54.0091C23.8 56.7121 24.888 57.8001 27.591 57.8001H34.459C37.1621 57.8001 38.25 56.7121 38.25 54.0091Z" stroke="white" stroke-width="2.55" stroke-linecap="round" stroke-linejoin="round"/>
</svg>
