<svg width="83" height="82" viewBox="0 0 83 82" fill="none" xmlns="http://www.w3.org/2000/svg">
<rect x="0.900391" width="81.6" height="81.6" rx="40.8" fill="black"/>
<path d="M56.9984 30.5663C51.3374 30.0053 45.6424 29.7163 39.9644 29.7163C36.5984 29.7163 33.2324 29.8863 29.8664 30.2263L26.3984 30.5663" stroke="white" stroke-width="2.55" stroke-linecap="round" stroke-linejoin="round"/>
<path d="M35.748 28.8493L36.122 26.6223C36.394 25.0073 36.598 23.8003 39.471 23.8003H43.925C46.798 23.8003 47.019 25.0753 47.274 26.6393L47.648 28.8493" stroke="white" stroke-width="2.55" stroke-linecap="round" stroke-linejoin="round"/>
<path d="M53.3447 35.9385L52.2397 53.0575C52.0527 55.7265 51.8997 57.8005 47.1567 57.8005H36.2427C31.4997 57.8005 31.3467 55.7265 31.1597 53.0575L30.0547 35.9385" stroke="white" stroke-width="2.55" stroke-linecap="round" stroke-linejoin="round"/>
<path d="M38.8594 48.4502H44.5204" stroke="white" stroke-width="2.55" stroke-linecap="round" stroke-linejoin="round"/>
<path d="M37.4492 41.6504H45.9492" stroke="white" stroke-width="2.55" stroke-linecap="round" stroke-linejoin="round"/>
</svg>
