<svg width="375" height="812" viewBox="0 0 375 812" fill="none" xmlns="http://www.w3.org/2000/svg">
<g clip-path="url(#clip0_7017_1818)">
<rect width="375" height="812" fill="url(#paint0_linear_7017_1818)"/>
<g clip-path="url(#clip1_7017_1818)">
<path fill-rule="evenodd" clip-rule="evenodd" d="M53.0882 0C66.3109 8.95523 77.1148 21.2126 84.3157 35.588C91.5166 21.2126 102.32 8.95523 115.543 0H220.088C233.008 8.75029 243.619 20.6533 250.815 34.6044C258.012 20.6533 268.623 8.75029 281.543 0H386.088C399.311 8.95523 410.114 21.2126 417.315 35.588C424.516 21.2126 435.32 8.95523 448.543 0H500.482V32.0621C500.37 31.8451 500.259 31.6277 500.149 31.4097C491.105 49.2861 476.478 63.8583 458.561 72.8333C476.478 81.8083 491.105 96.3805 500.149 114.257C500.259 114.039 500.37 113.822 500.482 113.605V199.062C500.37 198.845 500.259 198.628 500.149 198.41C491.271 215.958 477.013 230.322 459.544 239.333C477.013 248.345 491.271 262.709 500.149 280.257C500.259 280.039 500.37 279.822 500.482 279.605V365.062C500.37 364.845 500.259 364.628 500.149 364.41C491.105 382.286 476.478 396.858 458.561 405.833C476.478 414.808 491.105 429.38 500.149 447.257C500.259 447.039 500.37 446.822 500.482 446.605V500H448.543C451.755 497.825 454.11 495.844 457.59 494.075C440.238 484.992 426.097 470.61 417.315 453.079C408.45 470.777 394.123 485.266 376.544 494.333C379.845 496.036 383.031 497.93 386.088 500H281.543C284.6 497.93 287.786 496.036 291.086 494.333C273.835 485.434 259.715 471.314 250.815 454.062C241.83 471.482 227.521 485.708 210.041 494.591C213.165 496.227 217.184 498.034 220.088 500H115.543C118.755 497.825 121.11 495.844 124.59 494.075C107.238 484.992 93.0977 470.61 84.3157 453.079C75.4502 470.777 61.1232 485.266 43.5447 494.333C46.8453 496.036 50.0314 497.93 53.0882 500H0.482422V446.605C9.55024 429.026 24.0385 414.699 41.7371 405.833C24.0385 396.968 9.55024 382.641 0.482422 365.062V279.605C9.3817 262.353 23.5017 248.233 40.7536 239.333C23.5017 230.434 9.38169 216.314 0.482422 199.062V113.605C9.55024 96.026 24.0385 81.6989 41.7371 72.8333C24.0385 63.9677 9.55024 49.6407 0.482422 32.0621V0H53.0882ZM155.117 5.09537C125.822 10.2093 102.502 32.7092 96.1804 61.5713C125.475 56.4573 148.796 33.9575 155.117 5.09537ZM489.948 483.867C487.419 449.543 461.264 421.788 427.683 416.8C430.212 451.123 456.366 478.878 489.948 483.867ZM375.07 405.833C357.153 396.858 342.526 382.286 333.482 364.41C324.438 382.286 309.811 396.858 291.894 405.833C309.811 414.808 324.438 429.381 333.482 447.257C342.526 429.381 357.153 414.808 375.07 405.833ZM406.958 416.657C372.845 421.24 346.164 449.277 343.672 484.01C377.785 479.427 404.467 451.39 406.958 416.657ZM488.229 339.076C481.59 367.503 458.417 389.572 429.402 394.591C436.04 366.164 459.214 344.095 488.229 339.076ZM417.315 369.588C426.346 351.56 441.042 336.864 459.07 327.833C441.042 318.803 426.346 304.106 417.315 286.079C408.285 304.106 393.588 318.803 375.561 327.833C393.588 336.864 408.285 351.56 417.315 369.588ZM260.991 416.796C294.601 421.777 320.776 449.562 323.285 483.916C290.192 479.157 264.237 452.302 260.856 418.783C260.908 418.122 260.953 417.46 260.991 416.796ZM208.403 405.833C190.486 396.858 175.859 382.286 166.815 364.41C157.771 382.286 143.144 396.858 125.227 405.833C143.144 414.808 157.771 429.38 166.815 447.257C175.859 429.38 190.486 414.808 208.403 405.833ZM176.999 484.097C179.461 449.209 206.326 421.059 240.629 416.612C240.669 417.338 240.718 418.062 240.775 418.783C237.348 452.755 210.733 479.882 176.999 484.097ZM405.269 394.763C398.605 365.914 374.921 343.579 345.362 338.904C352.025 367.753 375.71 390.088 405.269 394.763ZM321.576 339.017C314.929 367.585 291.585 389.744 262.388 394.65C269.035 366.081 292.379 343.922 321.576 339.017ZM250.815 368.604C259.883 351.026 274.371 336.699 292.07 327.833C274.371 318.968 259.883 304.641 250.815 287.062C241.748 304.641 227.259 318.968 209.561 327.833C227.259 336.699 241.748 351.026 250.815 368.604ZM489.948 316.867C487.419 282.543 461.264 254.788 427.683 249.8C430.212 284.123 456.366 311.878 489.948 316.867ZM374.086 239.333C356.618 230.322 342.36 215.958 333.482 198.41C324.604 215.958 310.346 230.322 292.878 239.333C310.346 248.345 324.604 262.709 333.482 280.257C342.36 262.709 356.618 248.345 374.086 239.333ZM406.958 249.657C372.845 254.24 346.164 282.277 343.672 317.01C377.785 312.427 404.467 284.39 406.958 249.657ZM429.167 228.631C458.645 223.631 482.136 201.04 488.464 172.036C458.986 177.036 435.494 199.626 429.167 228.631ZM417.315 202.588C426.346 184.56 441.042 169.864 459.07 160.833C441.042 151.803 426.346 137.106 417.315 119.079C408.285 137.106 393.588 151.803 375.561 160.833C393.588 169.864 408.285 184.56 417.315 202.588ZM156.611 483.816C154.068 449.631 128.089 421.972 94.6868 416.851C97.2296 451.036 123.208 478.695 156.611 483.816ZM73.962 416.612C39.6735 421.057 12.8165 449.187 10.3363 484.054C44.6247 479.609 71.4817 451.48 73.962 416.612ZM239.293 394.869C232.612 365.744 208.588 343.237 178.671 338.798C185.352 367.923 209.376 390.43 239.293 394.869ZM96.4166 394.53C125.248 389.399 148.25 367.421 154.881 339.137C126.05 344.268 103.047 366.246 96.4166 394.53ZM84.3157 369.588C93.3461 351.56 108.042 336.864 126.07 327.833C108.042 318.803 93.3461 304.106 84.3157 286.079C75.2854 304.106 60.5887 318.803 42.5611 327.833C60.5887 336.864 75.2854 351.56 84.3157 369.588ZM72.2815 394.817C65.6094 365.829 41.755 343.408 12.0167 338.85C18.6889 367.837 42.5433 390.259 72.2815 394.817ZM207.42 239.333C189.951 248.345 175.693 262.709 166.815 280.257C157.937 262.709 143.68 248.345 126.211 239.333C143.68 230.322 157.937 215.958 166.815 198.41C175.693 215.958 189.951 230.322 207.42 239.333ZM156.611 316.816C154.068 282.631 128.089 254.972 94.6868 249.851C97.2295 284.036 123.208 311.695 156.611 316.816ZM73.962 249.612C71.4818 284.48 44.6247 312.609 10.3363 317.054C12.8165 282.187 39.6735 254.057 73.962 249.612ZM260.991 249.796C294.601 254.777 320.776 282.562 323.285 316.916C290.192 312.157 264.237 285.302 260.856 251.783C260.908 251.123 260.953 250.46 260.991 249.796ZM176.999 317.097C179.461 282.209 206.326 254.059 240.629 249.612C240.669 250.338 240.718 251.062 240.775 251.783C237.348 285.755 210.733 312.882 176.999 317.097ZM209.561 160.833C227.259 169.699 241.748 184.026 250.815 201.604C259.883 184.026 274.371 169.699 292.07 160.833C274.371 151.968 259.883 137.641 250.815 120.062C241.748 137.641 227.259 151.968 209.561 160.833ZM239.522 228.902C233.162 199.203 208.818 176.173 178.442 171.764C184.802 201.464 209.146 224.493 239.522 228.902ZM96.1804 228.571C125.476 223.457 148.796 200.958 155.117 172.095C125.822 177.209 102.502 199.709 96.1804 228.571ZM84.3157 202.588C93.3461 184.56 108.042 169.864 126.07 160.833C108.042 151.803 93.3461 137.106 84.3157 119.079C75.2854 137.106 60.5887 151.803 42.5611 160.833C60.5887 169.864 75.2854 184.56 84.3157 202.588ZM405.5 228.799C399.154 199.374 375.151 176.517 345.131 171.868C351.477 201.292 375.48 224.15 405.5 228.799ZM321.81 171.978C292.15 176.862 268.488 199.543 262.154 228.689C291.814 223.804 315.476 201.124 321.81 171.978ZM72.5118 228.852C42.3131 224.322 18.1396 201.378 11.7864 171.815C41.9851 176.345 66.1586 199.289 72.5118 228.852ZM489.866 149.855C486.905 116.027 460.976 88.7837 427.764 83.8118C430.725 117.64 456.655 144.883 489.866 149.855ZM375.07 72.8333C357.153 63.8583 342.526 49.2862 333.482 31.4097C324.438 49.2862 309.811 63.8583 291.894 72.8333C309.811 81.8084 324.438 96.3805 333.482 114.257C342.526 96.3805 357.153 81.8083 375.07 72.8333ZM406.879 83.6675C373.135 88.2383 346.681 115.761 343.752 149.999C377.495 145.428 403.95 117.906 406.879 83.6675ZM73.8831 83.6226C39.964 88.0572 13.3347 115.671 10.4151 150.044C44.3342 145.609 70.9635 117.996 73.8831 83.6226ZM94.7692 83.8632C97.7419 117.553 123.496 144.701 156.529 149.803C153.556 116.114 127.802 88.966 94.7692 83.8632ZM125.227 72.8333C143.144 81.8083 157.771 96.3804 166.815 114.257C175.859 96.3804 190.486 81.8083 208.403 72.8333C190.486 63.8584 175.859 49.2863 166.815 31.4099C157.771 49.2863 143.144 63.8584 125.227 72.8333ZM260.929 83.7868C294.238 88.694 320.259 115.996 323.204 149.905C290.149 145.114 264.235 118.275 260.856 84.7829C260.882 84.4514 260.906 84.1193 260.929 83.7868ZM177.078 150.087C179.982 115.647 206.689 87.983 240.689 83.6044C240.715 83.9979 240.744 84.3907 240.775 84.7829C237.35 118.729 210.774 145.841 177.078 150.087ZM239.522 61.9024C209.146 57.4932 184.802 34.4636 178.442 4.76426C208.818 9.17342 233.162 32.203 239.522 61.9024ZM429.167 61.6309C458.645 56.631 482.136 34.0402 488.464 5.03577C458.986 10.0357 435.494 32.6265 429.167 61.6309ZM405.5 61.7991C399.154 32.3744 375.151 9.51714 345.131 4.86762C351.477 34.2923 375.48 57.1495 405.5 61.7991ZM321.81 4.97797C292.15 9.86247 268.488 32.5431 262.154 61.6887C291.814 56.8042 315.476 34.1236 321.81 4.97797ZM11.7864 4.81509C18.1396 34.3776 42.3131 57.3215 72.5118 61.8516C66.1586 32.2891 41.9851 9.34515 11.7864 4.81509Z" fill="white" fill-opacity="0.2"/>
<path fill-rule="evenodd" clip-rule="evenodd" d="M52.6058 500C65.8285 508.955 76.6324 521.213 83.8333 535.588C91.0342 521.213 101.838 508.955 115.061 500H219.606C232.526 508.75 243.137 520.653 250.333 534.604C257.53 520.653 268.141 508.75 281.061 500H385.606C398.829 508.955 409.632 521.213 416.833 535.588C424.034 521.213 434.838 508.955 448.061 500H500V532.062C499.888 531.845 499.777 531.628 499.667 531.41C490.623 549.286 475.996 563.858 458.079 572.833C475.996 581.808 490.623 596.381 499.667 614.257C499.777 614.039 499.888 613.822 500 613.605V699.062C499.888 698.845 499.777 698.628 499.667 698.41C490.789 715.958 476.531 730.322 459.062 739.333C476.531 748.345 490.789 762.709 499.667 780.257C499.777 780.039 499.888 779.822 500 779.605V865.062C499.888 864.845 499.777 864.628 499.667 864.41C490.623 882.286 475.996 896.858 458.079 905.833C475.996 914.808 490.623 929.38 499.667 947.257C499.777 947.039 499.888 946.822 500 946.605V1000H448.061C451.273 997.825 453.628 995.844 457.108 994.075C439.756 984.992 425.615 970.61 416.833 953.079C407.968 970.777 393.641 985.266 376.062 994.333C379.363 996.036 382.549 997.93 385.606 1000H281.061C284.118 997.93 287.304 996.036 290.604 994.333C273.353 985.434 259.233 971.314 250.333 954.062C241.348 971.482 227.039 985.708 209.559 994.591C212.683 996.227 216.702 998.034 219.606 1000H115.061C118.273 997.825 120.628 995.844 124.108 994.075C106.756 984.992 92.6153 970.61 83.8333 953.079C74.9678 970.777 60.6408 985.266 43.0623 994.333C46.3629 996.036 49.549 997.93 52.6058 1000H0V946.605C9.06782 929.026 23.5561 914.699 41.2547 905.833C23.5561 896.968 9.06782 882.641 0 865.062V779.605C8.89928 762.353 23.0193 748.233 40.2712 739.333C23.0193 730.434 8.89927 716.314 0 699.062V613.605C9.06782 596.026 23.5561 581.699 41.2547 572.833C23.5561 563.968 9.06782 549.641 0 532.062V500H52.6058ZM154.635 505.095C125.34 510.209 102.02 532.709 95.698 561.571C124.993 556.457 148.314 533.958 154.635 505.095ZM489.466 983.867C486.937 949.543 460.782 921.788 427.201 916.8C429.73 951.123 455.884 978.878 489.466 983.867ZM374.588 905.833C356.671 896.858 342.044 882.286 333 864.41C323.956 882.286 309.329 896.858 291.412 905.833C309.329 914.808 323.956 929.381 333 947.257C342.044 929.381 356.671 914.808 374.588 905.833ZM406.476 916.657C372.363 921.24 345.682 949.277 343.19 984.01C377.303 979.427 403.985 951.39 406.476 916.657ZM487.747 839.076C481.108 867.503 457.935 889.572 428.92 894.591C435.558 866.164 458.732 844.095 487.747 839.076ZM416.833 869.588C425.864 851.56 440.56 836.864 458.588 827.833C440.56 818.803 425.864 804.106 416.833 786.079C407.803 804.106 393.106 818.803 375.079 827.833C393.106 836.864 407.803 851.56 416.833 869.588ZM260.509 916.796C294.119 921.777 320.294 949.562 322.803 983.916C289.71 979.157 263.755 952.302 260.374 918.783C260.426 918.122 260.471 917.46 260.509 916.796ZM207.921 905.833C190.004 896.858 175.377 882.286 166.333 864.41C157.289 882.286 142.662 896.858 124.745 905.833C142.662 914.808 157.289 929.38 166.333 947.257C175.377 929.38 190.004 914.808 207.921 905.833ZM176.517 984.097C178.979 949.209 205.844 921.059 240.147 916.612C240.187 917.338 240.236 918.062 240.293 918.783C236.866 952.755 210.251 979.882 176.517 984.097ZM404.787 894.763C398.123 865.914 374.439 843.579 344.88 838.904C351.543 867.753 375.228 890.088 404.787 894.763ZM321.094 839.017C314.447 867.585 291.103 889.744 261.906 894.65C268.553 866.081 291.897 843.922 321.094 839.017ZM250.333 868.604C259.401 851.026 273.889 836.699 291.588 827.833C273.889 818.968 259.401 804.641 250.333 787.062C241.266 804.641 226.777 818.968 209.079 827.833C226.777 836.699 241.266 851.026 250.333 868.604ZM489.466 816.867C486.937 782.543 460.782 754.788 427.201 749.8C429.73 784.123 455.884 811.878 489.466 816.867ZM373.604 739.333C356.136 730.322 341.878 715.958 333 698.41C324.122 715.958 309.864 730.322 292.396 739.333C309.864 748.345 324.122 762.709 333 780.257C341.878 762.709 356.136 748.345 373.604 739.333ZM406.476 749.657C372.363 754.24 345.682 782.277 343.19 817.01C377.303 812.427 403.985 784.39 406.476 749.657ZM428.685 728.631C458.163 723.631 481.654 701.04 487.982 672.036C458.504 677.036 435.012 699.626 428.685 728.631ZM416.833 702.588C425.864 684.56 440.56 669.864 458.588 660.833C440.56 651.803 425.864 637.106 416.833 619.079C407.803 637.106 393.106 651.803 375.079 660.833C393.106 669.864 407.803 684.56 416.833 702.588ZM156.129 983.816C153.586 949.631 127.607 921.972 94.2044 916.851C96.7472 951.036 122.726 978.695 156.129 983.816ZM73.4796 916.612C39.1911 921.057 12.3341 949.187 9.85384 984.054C44.1423 979.609 70.9993 951.48 73.4796 916.612ZM238.811 894.869C232.13 865.744 208.106 843.237 178.189 838.798C184.87 867.923 208.894 890.43 238.811 894.869ZM95.9342 894.53C124.766 889.399 147.768 867.421 154.399 839.137C125.568 844.268 102.565 866.246 95.9342 894.53ZM83.8333 869.588C92.8637 851.56 107.56 836.864 125.588 827.833C107.56 818.803 92.8637 804.106 83.8333 786.079C74.803 804.106 60.1063 818.803 42.0787 827.833C60.1063 836.864 74.803 851.56 83.8333 869.588ZM71.7991 894.817C65.127 865.829 41.2726 843.408 11.5343 838.85C18.2065 867.837 42.0609 890.259 71.7991 894.817ZM206.938 739.333C189.469 748.345 175.211 762.709 166.333 780.257C157.455 762.709 143.198 748.345 125.729 739.333C143.198 730.322 157.455 715.958 166.333 698.41C175.211 715.958 189.469 730.322 206.938 739.333ZM156.129 816.816C153.586 782.631 127.607 754.972 94.2044 749.851C96.7471 784.036 122.726 811.695 156.129 816.816ZM73.4796 749.612C70.9994 784.48 44.1423 812.609 9.85384 817.054C12.3341 782.187 39.1911 754.057 73.4796 749.612ZM260.509 749.796C294.119 754.777 320.294 782.562 322.803 816.916C289.71 812.157 263.755 785.302 260.374 751.783C260.426 751.123 260.471 750.46 260.509 749.796ZM176.517 817.097C178.979 782.209 205.844 754.059 240.147 749.612C240.187 750.338 240.236 751.062 240.293 751.783C236.866 785.755 210.251 812.882 176.517 817.097ZM209.079 660.833C226.777 669.699 241.266 684.026 250.333 701.604C259.401 684.026 273.889 669.699 291.588 660.833C273.889 651.968 259.401 637.641 250.333 620.062C241.266 637.641 226.777 651.968 209.079 660.833ZM239.04 728.902C232.68 699.203 208.336 676.173 177.96 671.764C184.32 701.464 208.664 724.493 239.04 728.902ZM95.698 728.571C124.994 723.457 148.314 700.958 154.635 672.095C125.34 677.209 102.02 699.709 95.698 728.571ZM83.8333 702.588C92.8637 684.56 107.56 669.864 125.588 660.833C107.56 651.803 92.8637 637.106 83.8333 619.079C74.803 637.106 60.1063 651.803 42.0787 660.833C60.1063 669.864 74.803 684.56 83.8333 702.588ZM405.018 728.799C398.672 699.374 374.669 676.517 344.649 671.868C350.995 701.292 374.998 724.15 405.018 728.799ZM321.328 671.978C291.668 676.862 268.006 699.543 261.672 728.689C291.332 723.804 314.994 701.124 321.328 671.978ZM72.0294 728.852C41.8307 724.322 17.6572 701.378 11.304 671.815C41.5027 676.345 65.6762 699.289 72.0294 728.852ZM489.384 649.855C486.423 616.027 460.494 588.784 427.282 583.812C430.243 617.64 456.173 644.883 489.384 649.855ZM374.588 572.833C356.671 563.858 342.044 549.286 333 531.41C323.956 549.286 309.329 563.858 291.412 572.833C309.329 581.808 323.956 596.381 333 614.257C342.044 596.381 356.671 581.808 374.588 572.833ZM406.397 583.668C372.653 588.238 346.199 615.761 343.27 649.999C377.013 645.428 403.468 617.906 406.397 583.668ZM73.4007 583.623C39.4816 588.057 12.8523 615.671 9.93267 650.044C43.8518 645.609 70.4811 617.996 73.4007 583.623ZM94.2868 583.863C97.2595 617.553 123.014 644.701 156.047 649.803C153.074 616.114 127.32 588.966 94.2868 583.863ZM124.745 572.833C142.662 581.808 157.289 596.38 166.333 614.257C175.377 596.38 190.004 581.808 207.921 572.833C190.004 563.858 175.377 549.286 166.333 531.41C157.289 549.286 142.662 563.858 124.745 572.833ZM260.447 583.787C293.756 588.694 319.777 615.996 322.722 649.905C289.667 645.114 263.753 618.275 260.374 584.783C260.4 584.451 260.424 584.119 260.447 583.787ZM176.596 650.087C179.5 615.647 206.207 587.983 240.207 583.604C240.233 583.998 240.262 584.391 240.293 584.783C236.868 618.729 210.292 645.841 176.596 650.087ZM239.04 561.902C208.664 557.493 184.32 534.464 177.96 504.764C208.336 509.173 232.68 532.203 239.04 561.902ZM428.685 561.631C458.163 556.631 481.654 534.04 487.982 505.036C458.504 510.036 435.012 532.627 428.685 561.631ZM405.018 561.799C398.672 532.374 374.669 509.517 344.649 504.868C350.995 534.292 374.998 557.149 405.018 561.799ZM321.328 504.978C291.668 509.862 268.006 532.543 261.672 561.689C291.332 556.804 314.994 534.124 321.328 504.978ZM11.304 504.815C17.6572 534.378 41.8307 557.322 72.0294 561.852C65.6762 532.289 41.5027 509.345 11.304 504.815Z" fill="white" fill-opacity="0.2"/>
</g>
</g>
<defs>
<linearGradient id="paint0_linear_7017_1818" x1="187.5" y1="0" x2="187.5" y2="812" gradientUnits="userSpaceOnUse">
<stop stop-color="#86FA9A"/>
<stop offset="1" stop-color="#41C495"/>
</linearGradient>
<clipPath id="clip0_7017_1818">
<rect width="375" height="812" fill="white"/>
</clipPath>
<clipPath id="clip1_7017_1818">
<rect width="375" height="812" fill="white"/>
</clipPath>
</defs>
</svg>
