<svg width="42" height="41" viewBox="0 0 42 41" fill="none" xmlns="http://www.w3.org/2000/svg">
<g clip-path="url(#clip0_8743_3499)">
<path d="M22.9274 5.9963L22.9379 6.00053L22.9484 6.00449L36.5477 11.1042C36.5478 11.1043 36.5479 11.1043 36.548 11.1043C36.7341 11.1744 36.8898 11.3075 36.9879 11.4805C37.086 11.6536 37.1203 11.8556 37.0848 12.0514C37.0493 12.2472 36.9463 12.4244 36.7936 12.552C36.6409 12.6796 36.4483 12.7496 36.2493 12.7498L35.4002 12.7507V13.5998V32.2998C35.4002 32.9761 35.1315 33.6247 34.6533 34.1029C34.1751 34.5812 33.5265 34.8498 32.8502 34.8498H9.05017C8.37387 34.8498 7.72527 34.5812 7.24705 34.1029C6.76883 33.6247 6.50017 32.9761 6.50017 32.2998V22.0998V21.2523L5.65263 21.2498C5.44716 21.2492 5.24886 21.1742 5.09442 21.0387C4.93999 20.9032 4.83987 20.7163 4.8126 20.5126C4.78533 20.309 4.83275 20.1023 4.94609 19.931C5.05928 19.7598 5.23057 19.6354 5.42832 19.5806C5.42857 19.5806 5.42882 19.5805 5.42908 19.5804L22.8739 14.821L23.5002 14.6502V14.001V8.61541V8.02695L22.9494 7.81981L22.3527 7.59541L22.3418 7.5913L22.3307 7.5875C22.2234 7.55047 22.1246 7.49232 22.0401 7.41649C21.9557 7.34065 21.8872 7.24866 21.8389 7.14595C21.7905 7.04323 21.7633 6.93188 21.7587 6.81845C21.7541 6.70502 21.7722 6.59182 21.8121 6.48553C21.8519 6.37924 21.9127 6.28201 21.9907 6.19957C22.0688 6.11714 22.1626 6.05118 22.2665 6.00558C22.3705 5.95998 22.4825 5.93566 22.596 5.93407C22.7095 5.93247 22.8222 5.95363 22.9274 5.9963ZM33.7002 12.4404V11.8514L33.1486 11.6445L26.3486 9.09453L25.2002 8.66386V9.89041V32.2998V33.1498H26.0502H32.8502H33.7002V32.2998V12.4404ZM16.7002 32.2998V33.1498H17.5502H22.6502H23.5002V32.2998V17.5268V16.4142L22.4267 16.7067L8.8267 20.4127L8.20017 20.5834V21.2328V32.2998V33.1498H9.05017H14.1502H15.0002V32.2998V27.1998C15.0002 26.9744 15.0897 26.7582 15.2491 26.5988C15.4085 26.4394 15.6247 26.3498 15.8502 26.3498C16.0756 26.3498 16.2918 26.4394 16.4512 26.5988C16.6106 26.7582 16.7002 26.9744 16.7002 27.1998V32.2998ZM27.7502 18.6998C27.7502 18.4744 27.8397 18.2582 27.9991 18.0988C28.1585 17.9394 28.3747 17.8498 28.6002 17.8498H30.3002C30.5256 17.8498 30.7418 17.9394 30.9012 18.0988C31.0606 18.2582 31.1502 18.4744 31.1502 18.6998C31.1502 18.9252 31.0606 19.1414 30.9012 19.3009C30.7418 19.4603 30.5256 19.5498 30.3002 19.5498H28.6002C28.3747 19.5498 28.1585 19.4603 27.9991 19.3009C27.8397 19.1414 27.7502 18.9252 27.7502 18.6998ZM27.9991 24.8988C28.1585 24.7394 28.3747 24.6498 28.6002 24.6498H30.3002C30.5256 24.6498 30.7418 24.7394 30.9012 24.8988C31.0606 25.0582 31.1502 25.2744 31.1502 25.4998C31.1502 25.7252 31.0606 25.9414 30.9012 26.1009C30.7418 26.2603 30.5256 26.3498 30.3002 26.3498H28.6002C28.3747 26.3498 28.1585 26.2603 27.9991 26.1009C27.8397 25.9414 27.7502 25.7252 27.7502 25.4998C27.7502 25.2744 27.8397 25.0582 27.9991 24.8988Z" fill="black" stroke="black" stroke-width="1.7"/>
</g>
<defs>
<clipPath id="clip0_8743_3499">
<rect width="40.8" height="40.8" fill="white" transform="translate(0.550049 -0.000488281)"/>
</clipPath>
</defs>
</svg>
