<svg width="28" height="28" viewBox="0 0 28 28" fill="none" xmlns="http://www.w3.org/2000/svg">
<path d="M7 11.6668V9.3335C7 5.47183 8.16667 2.3335 14 2.3335C19.8333 2.3335 21 5.47183 21 9.3335V11.6668" stroke="black" stroke-width="3" stroke-linecap="round" stroke-linejoin="round"/>
<path d="M14 21.5833C15.6109 21.5833 16.9167 20.2775 16.9167 18.6667C16.9167 17.0558 15.6109 15.75 14 15.75C12.3892 15.75 11.0834 17.0558 11.0834 18.6667C11.0834 20.2775 12.3892 21.5833 14 21.5833Z" stroke="black" stroke-width="3" stroke-linecap="round" stroke-linejoin="round"/>
<path d="M19.8334 25.6665H8.16671C3.50004 25.6665 2.33337 24.4998 2.33337 19.8332V17.4998C2.33337 12.8332 3.50004 11.6665 8.16671 11.6665H19.8334C24.5 11.6665 25.6667 12.8332 25.6667 17.4998V19.8332C25.6667 24.4998 24.5 25.6665 19.8334 25.6665Z" stroke="black" stroke-width="3" stroke-linecap="round" stroke-linejoin="round"/>
</svg>
