<svg width="1024" height="1366" viewBox="0 0 1024 1366" fill="none" xmlns="http://www.w3.org/2000/svg">
<g clip-path="url(#clip0_7023_29036)">
<rect width="1024" height="1366" fill="url(#paint0_linear_7023_29036)"/>
<g clip-path="url(#clip1_7023_29036)">
<path fill-rule="evenodd" clip-rule="evenodd" d="M89.3085 0C111.553 15.0651 129.728 35.6852 141.841 59.8685C153.955 35.6852 172.13 15.0651 194.375 0H370.247C391.982 14.7203 409.833 34.7443 421.938 58.2138C434.045 34.7443 451.896 14.7203 473.631 0H649.503C671.748 15.0651 689.921 35.6852 702.035 59.8685C714.149 35.6852 732.325 15.0651 754.569 0H841.944V53.937C841.756 53.5719 841.569 53.2062 841.384 52.8395C826.17 82.9123 801.563 107.427 771.422 122.525C801.563 137.623 826.17 162.138 841.384 192.211C841.569 191.844 841.756 191.479 841.944 191.114V334.875C841.756 334.51 841.569 334.145 841.384 333.778C826.449 363.299 802.463 387.463 773.076 402.622C802.463 417.782 826.449 441.946 841.384 471.467C841.569 471.1 841.756 470.735 841.944 470.37V614.131C841.756 613.766 841.569 613.401 841.384 613.034C826.17 643.107 801.563 667.621 771.422 682.719C801.563 697.817 826.17 722.331 841.384 752.405C841.569 752.038 841.756 751.673 841.944 751.308V841.133H754.569C759.973 837.474 763.934 834.141 769.789 831.166C740.598 815.885 716.809 791.691 702.035 762.199C687.122 791.972 663.02 816.346 633.448 831.6C639.001 834.464 644.361 837.651 649.503 841.133H473.631C478.774 837.651 484.133 834.464 489.685 831.6C460.664 816.629 436.91 792.875 421.938 763.853C406.823 793.158 382.751 817.09 353.345 832.034C358.601 834.786 365.362 837.826 370.247 841.133H194.375C199.778 837.474 203.74 834.141 209.594 831.166C180.404 815.885 156.615 791.691 141.841 762.199C126.927 791.972 102.825 816.346 73.2538 831.6C78.8063 834.464 84.1661 837.651 89.3085 841.133H0.811523V751.308C16.066 721.736 40.4391 697.634 70.2129 682.719C40.4391 667.806 16.066 643.704 0.811523 614.131V470.37C15.7825 441.348 39.5361 417.594 68.5584 402.622C39.5361 387.651 15.7825 363.898 0.811523 334.875V191.114C16.066 161.541 40.4391 137.439 70.2129 122.525C40.4391 107.611 16.066 83.5089 0.811523 53.937V0H89.3085ZM260.949 8.57177C211.667 17.1748 172.436 55.0256 161.801 103.579C211.083 94.9762 250.315 57.1255 260.949 8.57177ZM824.223 813.993C819.969 756.251 775.969 709.56 719.477 701.168C723.732 758.909 767.73 805.6 824.223 813.993ZM630.968 682.719C600.827 667.621 576.22 643.107 561.006 613.034C545.792 643.107 521.185 667.621 491.044 682.719C521.185 697.817 545.792 722.333 561.006 752.405C576.22 722.333 600.827 697.817 630.968 682.719ZM684.612 700.928C627.225 708.638 582.341 755.803 578.148 814.234C635.535 806.524 680.422 759.358 684.612 700.928ZM821.332 570.416C810.163 618.238 771.18 655.364 722.369 663.807C733.536 615.985 772.521 578.859 821.332 570.416ZM702.035 621.745C717.228 591.417 741.951 566.695 772.279 551.502C741.951 536.311 717.228 511.587 702.035 481.261C686.845 511.587 662.12 536.311 631.794 551.502C662.12 566.695 686.845 591.417 702.035 621.745ZM439.057 701.162C495.598 709.541 539.631 756.283 543.852 814.075C488.181 806.069 444.518 760.892 438.83 704.504C438.917 703.392 438.993 702.279 439.057 701.162ZM350.59 682.719C320.449 667.621 295.842 643.107 280.628 613.034C265.413 643.107 240.807 667.621 210.666 682.719C240.807 697.817 265.413 722.331 280.628 752.405C295.842 722.331 320.449 697.817 350.59 682.719ZM297.76 814.38C301.902 755.689 347.096 708.333 404.803 700.852C404.87 702.073 404.952 703.291 405.048 704.504C399.283 761.654 354.51 807.289 297.76 814.38ZM681.771 664.096C670.56 615.565 630.717 577.991 580.991 570.127C592.2 618.658 632.045 656.232 681.771 664.096ZM540.977 570.317C529.795 618.376 490.524 655.653 441.407 663.906C452.589 615.846 491.86 578.568 540.977 570.317ZM421.938 620.09C437.193 590.519 461.566 566.417 491.34 551.502C461.566 536.589 437.193 512.487 421.938 482.915C406.685 512.487 382.311 536.589 352.538 551.502C382.311 566.417 406.685 590.519 421.938 620.09ZM824.223 533.055C819.969 475.312 775.969 428.621 719.477 420.23C723.732 477.97 767.73 524.662 824.223 533.055ZM629.313 402.622C599.927 387.463 575.941 363.299 561.006 333.778C546.071 363.299 522.085 387.463 492.699 402.622C522.085 417.782 546.071 441.946 561.006 471.467C575.941 441.946 599.927 417.782 629.313 402.622ZM684.612 419.989C627.225 427.699 582.341 474.865 578.148 533.295C635.535 525.585 680.422 478.42 684.612 419.989ZM721.974 384.618C771.563 376.207 811.082 338.203 821.727 289.41C772.137 297.822 732.617 335.824 721.974 384.618ZM702.035 340.807C717.228 310.479 741.951 285.756 772.279 270.564C741.951 255.373 717.228 230.649 702.035 200.323C686.845 230.649 662.12 255.373 631.794 270.564C662.12 285.756 686.845 310.479 702.035 340.807ZM263.462 813.907C259.184 756.399 215.48 709.869 159.288 701.254C163.566 758.763 207.269 805.292 263.462 813.907ZM124.424 700.852C66.7414 708.33 21.5608 755.652 17.3883 814.307C75.0706 806.83 120.251 759.509 124.424 700.852ZM402.555 664.275C391.316 615.279 350.901 577.416 300.573 569.948C311.812 618.944 352.227 656.807 402.555 664.275ZM162.198 663.704C210.701 655.073 249.397 618.1 260.552 570.519C212.05 579.15 173.353 616.123 162.198 663.704ZM141.841 621.745C157.033 591.417 181.756 566.695 212.084 551.502C181.756 536.311 157.033 511.587 141.841 481.261C126.65 511.587 101.926 536.311 71.5991 551.502C101.926 566.695 126.65 591.417 141.841 621.745ZM121.597 664.187C110.372 615.422 70.243 577.704 20.2153 570.036C31.4397 618.8 71.5691 656.519 121.597 664.187ZM348.936 402.622C319.549 417.782 295.563 441.946 280.628 471.467C265.693 441.946 241.709 417.782 212.321 402.622C241.709 387.463 265.693 363.299 280.628 333.778C295.563 363.299 319.549 387.463 348.936 402.622ZM263.462 532.969C259.184 475.461 215.48 428.931 159.288 420.316C163.566 477.824 207.269 524.354 263.462 532.969ZM124.424 419.914C120.251 478.571 75.0706 525.891 17.3883 533.369C21.5608 474.714 66.7414 427.391 124.424 419.914ZM439.057 420.223C495.598 428.603 539.631 475.344 543.852 533.137C488.181 525.131 444.518 479.954 438.83 423.566C438.917 422.456 438.993 421.34 439.057 420.223ZM297.76 533.441C301.902 474.751 347.096 427.395 404.803 419.914C404.87 421.135 404.952 422.353 405.048 423.566C399.283 480.716 354.51 526.351 297.76 533.441ZM352.538 270.564C382.311 285.479 406.685 309.581 421.938 339.152C437.193 309.581 461.566 285.479 491.34 270.564C461.566 255.651 437.193 231.549 421.938 201.976C406.685 231.549 382.311 255.651 352.538 270.564ZM402.94 385.074C392.241 335.112 351.288 296.37 300.188 288.953C310.887 338.916 351.84 377.657 402.94 385.074ZM161.801 384.517C211.085 375.914 250.315 338.065 260.949 289.51C211.667 298.113 172.436 335.964 161.801 384.517ZM141.841 340.807C157.033 310.479 181.756 285.756 212.084 270.564C181.756 255.373 157.033 230.649 141.841 200.323C126.65 230.649 101.926 255.373 71.5991 270.564C101.926 285.756 126.65 310.479 141.841 340.807ZM682.159 384.901C671.484 335.4 631.104 296.949 580.603 289.128C591.278 338.627 631.658 377.08 682.159 384.901ZM541.371 289.313C491.475 297.529 451.669 335.684 441.013 384.716C490.909 376.498 530.715 338.344 541.371 289.313ZM121.984 384.99C71.1819 377.369 30.5156 338.771 19.8279 289.039C70.6301 296.659 111.296 335.257 121.984 384.99ZM824.086 252.096C819.104 195.188 775.485 149.358 719.613 140.994C724.595 197.902 768.216 243.732 824.086 252.096ZM630.968 122.525C600.827 107.427 576.22 82.9125 561.006 52.8395C545.792 82.9125 521.185 107.427 491.044 122.525C521.185 137.623 545.792 162.138 561.006 192.211C576.22 162.138 600.827 137.623 630.968 122.525ZM684.479 140.751C627.713 148.44 583.21 194.741 578.283 252.338C635.048 244.649 679.552 198.349 684.479 140.751ZM124.291 140.675C67.2301 148.136 22.4325 194.589 17.5209 252.414C74.5819 244.953 119.379 198.501 124.291 140.675ZM159.427 141.08C164.428 197.755 207.754 243.426 263.324 252.008C258.323 195.335 214.998 149.664 159.427 141.08ZM210.666 122.525C240.807 137.623 265.413 162.137 280.628 192.211C295.842 162.137 320.449 137.623 350.59 122.525C320.449 107.427 295.842 82.9127 280.628 52.8398C265.413 82.9127 240.807 107.427 210.666 122.525ZM438.953 140.952C494.987 149.207 538.761 195.136 543.716 252.18C488.108 244.12 444.514 198.97 438.83 142.627C438.874 142.07 438.914 141.511 438.953 140.952ZM297.893 252.486C302.778 194.549 347.707 148.011 404.904 140.645C404.947 141.307 404.996 141.968 405.048 142.627C399.286 199.734 354.579 245.343 297.893 252.486ZM402.94 104.136C351.84 96.7188 310.887 57.9769 300.188 8.01475C351.288 15.4321 392.241 54.174 402.94 104.136ZM721.974 103.68C771.563 95.2684 811.082 57.2647 821.727 8.4715C772.137 16.8827 732.617 54.8864 721.974 103.68ZM682.159 103.963C671.484 54.4623 631.104 16.0104 580.603 8.18863C591.278 57.6888 631.658 96.1407 682.159 103.963ZM541.371 8.37427C491.475 16.5913 451.669 54.7462 441.013 103.777C490.909 95.5598 530.715 57.405 541.371 8.37427ZM19.8279 8.10026C30.5156 57.8323 71.1819 96.43 121.984 104.051C111.296 54.3189 70.6301 15.721 19.8279 8.10026Z" fill="white" fill-opacity="0.2"/>
<path fill-rule="evenodd" clip-rule="evenodd" d="M88.4969 841.133C110.741 856.198 128.916 876.818 141.03 901.002C153.144 876.818 171.319 856.198 193.563 841.133H369.436C391.171 855.853 409.021 875.877 421.127 899.347C433.234 875.877 451.084 855.853 472.819 841.133H648.692C670.936 856.198 689.11 876.818 701.224 901.002C713.338 876.818 731.513 856.198 753.758 841.133H841.133V895.07C840.945 894.705 840.758 894.339 840.573 893.973C825.358 924.045 800.752 948.56 770.611 963.658C800.752 978.756 825.358 1003.27 840.573 1033.34C840.758 1032.98 840.945 1032.61 841.133 1032.25V1176.01C840.945 1175.64 840.758 1175.28 840.573 1174.91C825.638 1204.43 801.652 1228.6 772.264 1243.75C801.652 1258.92 825.638 1283.08 840.573 1312.6C840.758 1312.23 840.945 1311.87 841.133 1311.5V1455.26C840.945 1454.9 840.758 1454.53 840.573 1454.17C825.358 1484.24 800.752 1508.75 770.611 1523.85C800.752 1538.95 825.358 1563.46 840.573 1593.54C840.758 1593.17 840.945 1592.81 841.133 1592.44V1682.27H753.758C759.161 1678.61 763.123 1675.27 768.977 1672.3C739.786 1657.02 715.998 1632.82 701.224 1603.33C686.311 1633.11 662.209 1657.48 632.636 1672.73C638.189 1675.6 643.549 1678.78 648.692 1682.27H472.819C477.962 1678.78 483.322 1675.6 488.873 1672.73C459.852 1657.76 436.099 1634.01 421.127 1604.99C406.012 1634.29 381.94 1658.22 352.534 1673.17C357.789 1675.92 364.55 1678.96 369.436 1682.27H193.563C198.967 1678.61 202.928 1675.27 208.783 1672.3C179.592 1657.02 155.804 1632.82 141.03 1603.33C126.116 1633.11 102.014 1657.48 72.4422 1672.73C77.9947 1675.6 83.3546 1678.78 88.4969 1682.27H0V1592.44C15.2545 1562.87 39.6276 1538.77 69.4014 1523.85C39.6276 1508.94 15.2545 1484.84 0 1455.26V1311.5C14.971 1282.48 38.7246 1258.73 67.7469 1243.75C38.7246 1228.78 14.9709 1205.03 0 1176.01V1032.25C15.2545 1002.67 39.6276 978.572 69.4014 963.658C39.6276 948.744 15.2545 924.642 0 895.07V841.133H88.4969ZM260.137 849.705C210.855 858.308 171.625 896.159 160.989 944.712C210.271 936.109 249.504 898.259 260.137 849.705ZM823.412 1655.13C819.158 1597.38 775.158 1550.69 718.666 1542.3C722.92 1600.04 766.918 1646.73 823.412 1655.13ZM630.157 1523.85C600.016 1508.75 575.409 1484.24 560.195 1454.17C544.98 1484.24 520.374 1508.75 490.232 1523.85C520.374 1538.95 544.98 1563.47 560.195 1593.54C575.409 1563.47 600.016 1538.95 630.157 1523.85ZM683.801 1542.06C626.414 1549.77 581.529 1596.94 577.337 1655.37C634.724 1647.66 679.61 1600.49 683.801 1542.06ZM820.52 1411.55C809.352 1459.37 770.368 1496.5 721.557 1504.94C732.724 1457.12 771.709 1419.99 820.52 1411.55ZM701.224 1462.88C716.417 1432.55 741.139 1407.83 771.467 1392.64C741.139 1377.44 716.417 1352.72 701.224 1322.39C686.033 1352.72 661.309 1377.44 630.983 1392.64C661.309 1407.83 686.033 1432.55 701.224 1462.88ZM438.245 1542.29C494.786 1550.67 538.82 1597.42 543.04 1655.21C487.369 1647.2 443.706 1602.03 438.018 1545.64C438.106 1544.53 438.181 1543.41 438.245 1542.29ZM349.778 1523.85C319.637 1508.75 295.031 1484.24 279.816 1454.17C264.602 1484.24 239.995 1508.75 209.854 1523.85C239.995 1538.95 264.602 1563.46 279.816 1593.54C295.031 1563.46 319.637 1538.95 349.778 1523.85ZM296.949 1655.51C301.09 1596.82 346.284 1549.47 403.991 1541.99C404.058 1543.21 404.141 1544.42 404.237 1545.64C398.472 1602.79 353.698 1648.42 296.949 1655.51ZM680.959 1505.23C669.749 1456.7 629.906 1419.12 580.18 1411.26C591.389 1459.79 631.233 1497.36 680.959 1505.23ZM540.165 1411.45C528.983 1459.51 489.713 1496.79 440.596 1505.04C451.778 1456.98 491.048 1419.7 540.165 1411.45ZM421.127 1461.22C436.381 1431.65 460.754 1407.55 490.529 1392.64C460.754 1377.72 436.381 1353.62 421.127 1324.05C405.874 1353.62 381.499 1377.72 351.726 1392.64C381.499 1407.55 405.874 1431.65 421.127 1461.22ZM823.412 1374.19C819.158 1316.45 775.158 1269.75 718.666 1261.36C722.92 1319.1 766.918 1365.79 823.412 1374.19ZM628.501 1243.75C599.115 1228.6 575.13 1204.43 560.195 1174.91C545.259 1204.43 521.274 1228.6 491.888 1243.75C521.274 1258.92 545.259 1283.08 560.195 1312.6C575.13 1283.08 599.115 1258.92 628.501 1243.75ZM683.801 1261.12C626.414 1268.83 581.529 1316 577.337 1374.43C634.724 1366.72 679.61 1319.55 683.801 1261.12ZM721.162 1225.75C770.752 1217.34 810.27 1179.34 820.915 1130.54C771.326 1138.95 731.806 1176.96 721.162 1225.75ZM701.224 1181.94C716.417 1151.61 741.139 1126.89 771.467 1111.7C741.139 1096.51 716.417 1071.78 701.224 1041.46C686.033 1071.78 661.309 1096.51 630.983 1111.7C661.309 1126.89 686.033 1151.61 701.224 1181.94ZM262.65 1655.04C258.372 1597.53 214.669 1551 158.477 1542.39C162.755 1599.9 206.458 1646.43 262.65 1655.04ZM123.612 1541.99C65.9298 1549.46 20.7492 1596.78 16.5768 1655.44C74.2591 1647.96 119.44 1600.64 123.612 1541.99ZM401.744 1505.41C390.504 1456.41 350.09 1418.55 299.761 1411.08C311 1460.08 351.415 1497.94 401.744 1505.41ZM161.387 1504.84C209.89 1496.21 248.585 1459.23 259.74 1411.65C211.239 1420.28 172.542 1457.26 161.387 1504.84ZM141.03 1462.88C156.221 1432.55 180.945 1407.83 211.272 1392.64C180.945 1377.44 156.221 1352.72 141.03 1322.39C125.839 1352.72 101.115 1377.44 70.7876 1392.64C101.115 1407.83 125.839 1432.55 141.03 1462.88ZM120.785 1505.32C109.561 1456.55 69.4315 1418.84 19.4038 1411.17C30.6282 1459.93 70.7576 1497.65 120.785 1505.32ZM348.125 1243.75C318.737 1258.92 294.751 1283.08 279.816 1312.6C264.881 1283.08 240.897 1258.92 211.51 1243.75C240.897 1228.6 264.881 1204.43 279.816 1174.91C294.751 1204.43 318.737 1228.6 348.125 1243.75ZM262.65 1374.1C258.372 1316.59 214.669 1270.06 158.477 1261.45C162.754 1318.96 206.458 1365.49 262.65 1374.1ZM123.612 1261.05C119.44 1319.7 74.2591 1367.02 16.5768 1374.5C20.7492 1315.85 65.9298 1268.52 123.612 1261.05ZM438.245 1261.36C494.786 1269.74 538.82 1316.48 543.04 1374.27C487.369 1366.26 443.706 1321.09 438.018 1264.7C438.106 1263.59 438.181 1262.47 438.245 1261.36ZM296.949 1374.57C301.09 1315.88 346.284 1268.53 403.991 1261.05C404.058 1262.27 404.141 1263.49 404.237 1264.7C398.472 1321.85 353.698 1367.48 296.949 1374.57ZM351.726 1111.7C381.499 1126.61 405.874 1150.71 421.127 1180.28C436.381 1150.71 460.754 1126.61 490.529 1111.7C460.754 1096.78 436.381 1072.68 421.127 1043.11C405.874 1072.68 381.499 1096.78 351.726 1111.7ZM402.129 1226.21C391.43 1176.25 350.477 1137.5 299.376 1130.09C310.075 1180.05 351.028 1218.79 402.129 1226.21ZM160.989 1225.65C210.273 1217.05 249.504 1179.2 260.137 1130.64C210.855 1139.25 171.625 1177.1 160.989 1225.65ZM141.03 1181.94C156.221 1151.61 180.945 1126.89 211.272 1111.7C180.945 1096.51 156.221 1071.78 141.03 1041.46C125.839 1071.78 101.115 1096.51 70.7876 1111.7C101.115 1126.89 125.839 1151.61 141.03 1181.94ZM681.348 1226.03C670.672 1176.53 630.293 1138.08 579.791 1130.26C590.467 1179.76 630.846 1218.21 681.348 1226.03ZM540.559 1130.45C490.663 1138.66 450.857 1176.82 440.202 1225.85C490.098 1217.63 529.904 1179.48 540.559 1130.45ZM121.173 1226.12C70.3704 1218.5 29.7041 1179.9 19.0163 1130.17C69.8186 1137.79 110.485 1176.39 121.173 1226.12ZM823.274 1093.23C818.293 1036.32 774.673 990.491 718.802 982.127C723.783 1039.03 767.404 1084.86 823.274 1093.23ZM630.157 963.658C600.016 948.56 575.409 924.046 560.195 893.973C544.98 924.046 520.374 948.56 490.232 963.658C520.374 978.757 544.98 1003.27 560.195 1033.34C575.409 1003.27 600.016 978.756 630.157 963.658ZM683.668 981.884C626.901 989.573 582.399 1035.87 577.471 1093.47C634.236 1085.78 678.74 1039.48 683.668 981.884ZM123.479 981.809C66.4185 989.269 21.621 1035.72 16.7094 1093.55C73.7704 1086.09 118.568 1039.63 123.479 981.809ZM158.615 982.213C163.616 1038.89 206.942 1084.56 262.513 1093.14C257.511 1036.47 214.186 990.798 158.615 982.213ZM209.854 963.658C239.995 978.756 264.602 1003.27 279.816 1033.34C295.031 1003.27 319.637 978.756 349.778 963.658C319.637 948.56 295.031 924.046 279.816 893.973C264.602 924.046 239.995 948.56 209.854 963.658ZM438.141 982.085C494.176 990.34 537.95 1036.27 542.904 1093.31C487.297 1085.25 443.703 1040.1 438.018 983.76C438.062 983.203 438.102 982.644 438.141 982.085ZM297.081 1093.62C301.967 1035.68 346.895 989.144 404.092 981.778C404.136 982.44 404.185 983.101 404.237 983.76C398.475 1040.87 353.767 1086.48 297.081 1093.62ZM402.129 945.269C351.028 937.852 310.075 899.11 299.376 849.148C350.477 856.565 391.43 895.307 402.129 945.269ZM721.162 944.813C770.752 936.401 810.27 898.398 820.915 849.605C771.326 858.016 731.806 896.02 721.162 944.813ZM681.348 945.096C670.672 895.595 630.293 857.143 579.791 849.322C590.467 898.822 630.846 937.274 681.348 945.096ZM540.559 849.507C490.663 857.724 450.857 895.879 440.202 944.91C490.098 936.693 529.904 898.538 540.559 849.507ZM19.0163 849.233C29.7041 898.965 70.3704 937.563 121.173 945.184C110.485 895.452 69.8186 856.854 19.0163 849.233Z" fill="white" fill-opacity="0.2"/>
</g>
<g clip-path="url(#clip2_7023_29036)">
<path fill-rule="evenodd" clip-rule="evenodd" d="M651.308 0C673.553 15.0651 691.728 35.6852 703.841 59.8685C715.955 35.6852 734.13 15.0651 756.375 0H932.247C953.982 14.7203 971.833 34.7443 983.938 58.2138C996.045 34.7443 1013.9 14.7203 1035.63 0H1211.5C1233.75 15.0651 1251.92 35.6852 1264.04 59.8685C1276.15 35.6852 1294.32 15.0651 1316.57 0H1403.94V53.937C1403.76 53.5719 1403.57 53.2062 1403.38 52.8395C1388.17 82.9123 1363.56 107.427 1333.42 122.525C1363.56 137.623 1388.17 162.138 1403.38 192.211C1403.57 191.844 1403.76 191.479 1403.94 191.114V334.875C1403.76 334.51 1403.57 334.145 1403.38 333.778C1388.45 363.299 1364.46 387.463 1335.08 402.622C1364.46 417.782 1388.45 441.946 1403.38 471.467C1403.57 471.1 1403.76 470.735 1403.94 470.37V614.131C1403.76 613.766 1403.57 613.401 1403.38 613.034C1388.17 643.107 1363.56 667.621 1333.42 682.719C1363.56 697.817 1388.17 722.331 1403.38 752.405C1403.57 752.038 1403.76 751.673 1403.94 751.308V841.133H1316.57C1321.97 837.474 1325.93 834.141 1331.79 831.166C1302.6 815.885 1278.81 791.691 1264.04 762.199C1249.12 791.972 1225.02 816.346 1195.45 831.6C1201 834.464 1206.36 837.651 1211.5 841.133H1035.63C1040.77 837.651 1046.13 834.464 1051.68 831.6C1022.66 816.629 998.91 792.875 983.938 763.853C968.823 793.158 944.751 817.09 915.345 832.034C920.601 834.786 927.362 837.826 932.247 841.133H756.375C761.778 837.474 765.74 834.141 771.594 831.166C742.404 815.885 718.615 791.691 703.841 762.199C688.927 791.972 664.825 816.346 635.254 831.6C640.806 834.464 646.166 837.651 651.308 841.133H562.812V751.308C578.066 721.736 602.439 697.634 632.213 682.719C602.439 667.806 578.066 643.704 562.812 614.131V470.37C577.782 441.348 601.536 417.594 630.558 402.622C601.536 387.651 577.782 363.898 562.812 334.875V191.114C578.066 161.541 602.439 137.439 632.213 122.525C602.439 107.611 578.066 83.5089 562.812 53.937V0H651.308ZM822.949 8.57177C773.667 17.1748 734.436 55.0256 723.801 103.579C773.083 94.9762 812.315 57.1255 822.949 8.57177ZM1386.22 813.993C1381.97 756.251 1337.97 709.56 1281.48 701.168C1285.73 758.909 1329.73 805.6 1386.22 813.993ZM1192.97 682.719C1162.83 667.621 1138.22 643.107 1123.01 613.034C1107.79 643.107 1083.19 667.621 1053.04 682.719C1083.19 697.817 1107.79 722.333 1123.01 752.405C1138.22 722.333 1162.83 697.817 1192.97 682.719ZM1246.61 700.928C1189.23 708.638 1144.34 755.803 1140.15 814.234C1197.54 806.524 1242.42 759.358 1246.61 700.928ZM1383.33 570.416C1372.16 618.238 1333.18 655.364 1284.37 663.807C1295.54 615.985 1334.52 578.859 1383.33 570.416ZM1264.04 621.745C1279.23 591.417 1303.95 566.695 1334.28 551.502C1303.95 536.311 1279.23 511.587 1264.04 481.261C1248.84 511.587 1224.12 536.311 1193.79 551.502C1224.12 566.695 1248.84 591.417 1264.04 621.745ZM1001.06 701.162C1057.6 709.541 1101.63 756.283 1105.85 814.075C1050.18 806.069 1006.52 760.892 1000.83 704.504C1000.92 703.392 1000.99 702.279 1001.06 701.162ZM912.59 682.719C882.449 667.621 857.842 643.107 842.628 613.034C827.413 643.107 802.807 667.621 772.666 682.719C802.807 697.817 827.413 722.331 842.628 752.405C857.842 722.331 882.449 697.817 912.59 682.719ZM859.76 814.38C863.902 755.689 909.096 708.333 966.803 700.852C966.87 702.073 966.952 703.291 967.048 704.504C961.283 761.654 916.51 807.289 859.76 814.38ZM1243.77 664.096C1232.56 615.565 1192.72 577.991 1142.99 570.127C1154.2 618.658 1194.04 656.232 1243.77 664.096ZM1102.98 570.317C1091.79 618.376 1052.52 655.653 1003.41 663.906C1014.59 615.846 1053.86 578.568 1102.98 570.317ZM983.938 620.09C999.193 590.519 1023.57 566.417 1053.34 551.502C1023.57 536.589 999.193 512.487 983.938 482.915C968.685 512.487 944.311 536.589 914.538 551.502C944.311 566.417 968.685 590.519 983.938 620.09ZM1386.22 533.055C1381.97 475.312 1337.97 428.621 1281.48 420.23C1285.73 477.97 1329.73 524.662 1386.22 533.055ZM1191.31 402.622C1161.93 387.463 1137.94 363.299 1123.01 333.778C1108.07 363.299 1084.09 387.463 1054.7 402.622C1084.09 417.782 1108.07 441.946 1123.01 471.467C1137.94 441.946 1161.93 417.782 1191.31 402.622ZM1246.61 419.989C1189.23 427.699 1144.34 474.865 1140.15 533.295C1197.54 525.585 1242.42 478.42 1246.61 419.989ZM1283.97 384.618C1333.56 376.207 1373.08 338.203 1383.73 289.41C1334.14 297.822 1294.62 335.824 1283.97 384.618ZM1264.04 340.807C1279.23 310.479 1303.95 285.756 1334.28 270.564C1303.95 255.373 1279.23 230.649 1264.04 200.323C1248.84 230.649 1224.12 255.373 1193.79 270.564C1224.12 285.756 1248.84 310.479 1264.04 340.807ZM825.462 813.907C821.184 756.399 777.48 709.869 721.288 701.254C725.566 758.763 769.269 805.292 825.462 813.907ZM686.424 700.852C628.741 708.33 583.561 755.652 579.388 814.307C637.071 806.83 682.251 759.509 686.424 700.852ZM964.555 664.275C953.316 615.279 912.901 577.416 862.573 569.948C873.812 618.944 914.227 656.807 964.555 664.275ZM724.198 663.704C772.701 655.073 811.397 618.1 822.552 570.519C774.05 579.15 735.353 616.123 724.198 663.704ZM703.841 621.745C719.033 591.417 743.756 566.695 774.084 551.502C743.756 536.311 719.033 511.587 703.841 481.261C688.65 511.587 663.926 536.311 633.599 551.502C663.926 566.695 688.65 591.417 703.841 621.745ZM683.597 664.187C672.372 615.422 632.243 577.704 582.215 570.036C593.44 618.8 633.569 656.519 683.597 664.187ZM910.936 402.622C881.549 417.782 857.563 441.946 842.628 471.467C827.693 441.946 803.709 417.782 774.321 402.622C803.709 387.463 827.693 363.299 842.628 333.778C857.563 363.299 881.549 387.463 910.936 402.622ZM825.462 532.969C821.184 475.461 777.48 428.931 721.288 420.316C725.566 477.824 769.269 524.354 825.462 532.969ZM686.424 419.914C682.251 478.571 637.071 525.891 579.388 533.369C583.561 474.714 628.741 427.391 686.424 419.914ZM1001.06 420.223C1057.6 428.603 1101.63 475.344 1105.85 533.137C1050.18 525.131 1006.52 479.954 1000.83 423.566C1000.92 422.456 1000.99 421.34 1001.06 420.223ZM859.76 533.441C863.902 474.751 909.096 427.395 966.803 419.914C966.87 421.135 966.952 422.353 967.048 423.566C961.283 480.716 916.51 526.351 859.76 533.441ZM914.538 270.564C944.311 285.479 968.685 309.581 983.938 339.152C999.193 309.581 1023.57 285.479 1053.34 270.564C1023.57 255.651 999.193 231.549 983.938 201.976C968.685 231.549 944.311 255.651 914.538 270.564ZM964.94 385.074C954.241 335.112 913.288 296.37 862.188 288.953C872.887 338.916 913.84 377.657 964.94 385.074ZM723.801 384.517C773.085 375.914 812.315 338.065 822.949 289.51C773.667 298.113 734.436 335.964 723.801 384.517ZM703.841 340.807C719.033 310.479 743.756 285.756 774.084 270.564C743.756 255.373 719.033 230.649 703.841 200.323C688.65 230.649 663.926 255.373 633.599 270.564C663.926 285.756 688.65 310.479 703.841 340.807ZM1244.16 384.901C1233.48 335.4 1193.1 296.949 1142.6 289.128C1153.28 338.627 1193.66 377.08 1244.16 384.901ZM1103.37 289.313C1053.47 297.529 1013.67 335.684 1003.01 384.716C1052.91 376.498 1092.72 338.344 1103.37 289.313ZM683.984 384.99C633.182 377.369 592.516 338.771 581.828 289.039C632.63 296.659 673.296 335.257 683.984 384.99ZM1386.09 252.096C1381.1 195.188 1337.48 149.358 1281.61 140.994C1286.59 197.902 1330.22 243.732 1386.09 252.096ZM1192.97 122.525C1162.83 107.427 1138.22 82.9125 1123.01 52.8395C1107.79 82.9125 1083.19 107.427 1053.04 122.525C1083.19 137.623 1107.79 162.138 1123.01 192.211C1138.22 162.138 1162.83 137.623 1192.97 122.525ZM1246.48 140.751C1189.71 148.44 1145.21 194.741 1140.28 252.338C1197.05 244.649 1241.55 198.349 1246.48 140.751ZM686.291 140.675C629.23 148.136 584.433 194.589 579.521 252.414C636.582 244.953 681.379 198.501 686.291 140.675ZM721.427 141.08C726.428 197.755 769.754 243.426 825.324 252.008C820.323 195.335 776.998 149.664 721.427 141.08ZM772.666 122.525C802.807 137.623 827.413 162.137 842.628 192.211C857.842 162.137 882.449 137.623 912.59 122.525C882.449 107.427 857.842 82.9127 842.628 52.8398C827.413 82.9127 802.807 107.427 772.666 122.525ZM1000.95 140.952C1056.99 149.207 1100.76 195.136 1105.72 252.18C1050.11 244.12 1006.51 198.97 1000.83 142.627C1000.87 142.07 1000.91 141.511 1000.95 140.952ZM859.893 252.486C864.778 194.549 909.707 148.011 966.904 140.645C966.947 141.307 966.996 141.968 967.048 142.627C961.286 199.734 916.579 245.343 859.893 252.486ZM964.94 104.136C913.84 96.7188 872.887 57.9769 862.188 8.01475C913.288 15.4321 954.241 54.174 964.94 104.136ZM1283.97 103.68C1333.56 95.2684 1373.08 57.2647 1383.73 8.4715C1334.14 16.8827 1294.62 54.8864 1283.97 103.68ZM1244.16 103.963C1233.48 54.4623 1193.1 16.0104 1142.6 8.18863C1153.28 57.6888 1193.66 96.1407 1244.16 103.963ZM1103.37 8.37427C1053.47 16.5913 1013.67 54.7462 1003.01 103.777C1052.91 95.5598 1092.72 57.405 1103.37 8.37427ZM581.828 8.10026C592.516 57.8323 633.182 96.43 683.984 104.051C673.296 54.3189 632.63 15.721 581.828 8.10026Z" fill="white" fill-opacity="0.2"/>
<path fill-rule="evenodd" clip-rule="evenodd" d="M650.497 841.133C672.741 856.198 690.916 876.818 703.03 901.002C715.144 876.818 733.319 856.198 755.563 841.133H931.436C953.171 855.853 971.021 875.877 983.127 899.347C995.234 875.877 1013.08 855.853 1034.82 841.133H1210.69C1232.94 856.198 1251.11 876.818 1263.22 901.002C1275.34 876.818 1293.51 856.198 1315.76 841.133H1403.13V895.07C1402.94 894.705 1402.76 894.339 1402.57 893.973C1387.36 924.045 1362.75 948.56 1332.61 963.658C1362.75 978.756 1387.36 1003.27 1402.57 1033.34C1402.76 1032.98 1402.94 1032.61 1403.13 1032.25V1176.01C1402.94 1175.64 1402.76 1175.28 1402.57 1174.91C1387.64 1204.43 1363.65 1228.6 1334.26 1243.75C1363.65 1258.92 1387.64 1283.08 1402.57 1312.6C1402.76 1312.23 1402.94 1311.87 1403.13 1311.5V1455.26C1402.94 1454.9 1402.76 1454.53 1402.57 1454.17C1387.36 1484.24 1362.75 1508.75 1332.61 1523.85C1362.75 1538.95 1387.36 1563.46 1402.57 1593.54C1402.76 1593.17 1402.94 1592.81 1403.13 1592.44V1682.27H1315.76C1321.16 1678.61 1325.12 1675.27 1330.98 1672.3C1301.79 1657.02 1278 1632.82 1263.22 1603.33C1248.31 1633.11 1224.21 1657.48 1194.64 1672.73C1200.19 1675.6 1205.55 1678.78 1210.69 1682.27H1034.82C1039.96 1678.78 1045.32 1675.6 1050.87 1672.73C1021.85 1657.76 998.099 1634.01 983.127 1604.99C968.012 1634.29 943.94 1658.22 914.534 1673.17C919.789 1675.92 926.55 1678.96 931.436 1682.27H755.563C760.967 1678.61 764.928 1675.27 770.783 1672.3C741.592 1657.02 717.804 1632.82 703.03 1603.33C688.116 1633.11 664.014 1657.48 634.442 1672.73C639.995 1675.6 645.355 1678.78 650.497 1682.27H562V1592.44C577.254 1562.87 601.628 1538.77 631.401 1523.85C601.628 1508.94 577.254 1484.84 562 1455.26V1311.5C576.971 1282.48 600.725 1258.73 629.747 1243.75C600.725 1228.78 576.971 1205.03 562 1176.01V1032.25C577.254 1002.67 601.628 978.572 631.401 963.658C601.628 948.744 577.254 924.642 562 895.07V841.133H650.497ZM822.137 849.705C772.855 858.308 733.625 896.159 722.989 944.712C772.271 936.109 811.504 898.259 822.137 849.705ZM1385.41 1655.13C1381.16 1597.38 1337.16 1550.69 1280.67 1542.3C1284.92 1600.04 1328.92 1646.73 1385.41 1655.13ZM1192.16 1523.85C1162.02 1508.75 1137.41 1484.24 1122.19 1454.17C1106.98 1484.24 1082.37 1508.75 1052.23 1523.85C1082.37 1538.95 1106.98 1563.47 1122.19 1593.54C1137.41 1563.47 1162.02 1538.95 1192.16 1523.85ZM1245.8 1542.06C1188.41 1549.77 1143.53 1596.94 1139.34 1655.37C1196.72 1647.66 1241.61 1600.49 1245.8 1542.06ZM1382.52 1411.55C1371.35 1459.37 1332.37 1496.5 1283.56 1504.94C1294.72 1457.12 1333.71 1419.99 1382.52 1411.55ZM1263.22 1462.88C1278.42 1432.55 1303.14 1407.83 1333.47 1392.64C1303.14 1377.44 1278.42 1352.72 1263.22 1322.39C1248.03 1352.72 1223.31 1377.44 1192.98 1392.64C1223.31 1407.83 1248.03 1432.55 1263.22 1462.88ZM1000.25 1542.29C1056.79 1550.67 1100.82 1597.42 1105.04 1655.21C1049.37 1647.2 1005.71 1602.03 1000.02 1545.64C1000.11 1544.53 1000.18 1543.41 1000.25 1542.29ZM911.778 1523.85C881.637 1508.75 857.031 1484.24 841.816 1454.17C826.602 1484.24 801.995 1508.75 771.854 1523.85C801.995 1538.95 826.602 1563.46 841.816 1593.54C857.031 1563.46 881.637 1538.95 911.778 1523.85ZM858.949 1655.51C863.09 1596.82 908.284 1549.47 965.991 1541.99C966.058 1543.21 966.141 1544.42 966.237 1545.64C960.472 1602.79 915.698 1648.42 858.949 1655.51ZM1242.96 1505.23C1231.75 1456.7 1191.91 1419.12 1142.18 1411.26C1153.39 1459.79 1193.23 1497.36 1242.96 1505.23ZM1102.17 1411.45C1090.98 1459.51 1051.71 1496.79 1002.6 1505.04C1013.78 1456.98 1053.05 1419.7 1102.17 1411.45ZM983.127 1461.22C998.381 1431.65 1022.75 1407.55 1052.53 1392.64C1022.75 1377.72 998.381 1353.62 983.127 1324.05C967.874 1353.62 943.499 1377.72 913.726 1392.64C943.499 1407.55 967.874 1431.65 983.127 1461.22ZM1385.41 1374.19C1381.16 1316.45 1337.16 1269.75 1280.67 1261.36C1284.92 1319.1 1328.92 1365.79 1385.41 1374.19ZM1190.5 1243.75C1161.12 1228.6 1137.13 1204.43 1122.19 1174.91C1107.26 1204.43 1083.27 1228.6 1053.89 1243.75C1083.27 1258.92 1107.26 1283.08 1122.19 1312.6C1137.13 1283.08 1161.12 1258.92 1190.5 1243.75ZM1245.8 1261.12C1188.41 1268.83 1143.53 1316 1139.34 1374.43C1196.72 1366.72 1241.61 1319.55 1245.8 1261.12ZM1283.16 1225.75C1332.75 1217.34 1372.27 1179.34 1382.92 1130.54C1333.33 1138.95 1293.81 1176.96 1283.16 1225.75ZM1263.22 1181.94C1278.42 1151.61 1303.14 1126.89 1333.47 1111.7C1303.14 1096.51 1278.42 1071.78 1263.22 1041.46C1248.03 1071.78 1223.31 1096.51 1192.98 1111.7C1223.31 1126.89 1248.03 1151.61 1263.22 1181.94ZM824.65 1655.04C820.372 1597.53 776.669 1551 720.477 1542.39C724.755 1599.9 768.458 1646.43 824.65 1655.04ZM685.612 1541.99C627.93 1549.46 582.749 1596.78 578.577 1655.44C636.259 1647.96 681.44 1600.64 685.612 1541.99ZM963.744 1505.41C952.504 1456.41 912.09 1418.55 861.761 1411.08C873 1460.08 913.415 1497.94 963.744 1505.41ZM723.387 1504.84C771.89 1496.21 810.585 1459.23 821.74 1411.65C773.239 1420.28 734.542 1457.26 723.387 1504.84ZM703.03 1462.88C718.221 1432.55 742.945 1407.83 773.272 1392.64C742.945 1377.44 718.221 1352.72 703.03 1322.39C687.839 1352.72 663.115 1377.44 632.788 1392.64C663.115 1407.83 687.839 1432.55 703.03 1462.88ZM682.785 1505.32C671.561 1456.55 631.431 1418.84 581.404 1411.17C592.628 1459.93 632.758 1497.65 682.785 1505.32ZM910.125 1243.75C880.737 1258.92 856.751 1283.08 841.816 1312.6C826.881 1283.08 802.897 1258.92 773.51 1243.75C802.897 1228.6 826.881 1204.43 841.816 1174.91C856.751 1204.43 880.737 1228.6 910.125 1243.75ZM824.65 1374.1C820.372 1316.59 776.669 1270.06 720.477 1261.45C724.754 1318.96 768.458 1365.49 824.65 1374.1ZM685.612 1261.05C681.44 1319.7 636.259 1367.02 578.577 1374.5C582.749 1315.85 627.93 1268.52 685.612 1261.05ZM1000.25 1261.36C1056.79 1269.74 1100.82 1316.48 1105.04 1374.27C1049.37 1366.26 1005.71 1321.09 1000.02 1264.7C1000.11 1263.59 1000.18 1262.47 1000.25 1261.36ZM858.949 1374.57C863.09 1315.88 908.284 1268.53 965.991 1261.05C966.058 1262.27 966.141 1263.49 966.237 1264.7C960.472 1321.85 915.698 1367.48 858.949 1374.57ZM913.726 1111.7C943.499 1126.61 967.874 1150.71 983.127 1180.28C998.381 1150.71 1022.75 1126.61 1052.53 1111.7C1022.75 1096.78 998.381 1072.68 983.127 1043.11C967.874 1072.68 943.499 1096.78 913.726 1111.7ZM964.129 1226.21C953.43 1176.25 912.477 1137.5 861.376 1130.09C872.075 1180.05 913.028 1218.79 964.129 1226.21ZM722.989 1225.65C772.273 1217.05 811.504 1179.2 822.137 1130.64C772.855 1139.25 733.625 1177.1 722.989 1225.65ZM703.03 1181.94C718.221 1151.61 742.945 1126.89 773.272 1111.7C742.945 1096.51 718.221 1071.78 703.03 1041.46C687.839 1071.78 663.115 1096.51 632.788 1111.7C663.115 1126.89 687.839 1151.61 703.03 1181.94ZM1243.35 1226.03C1232.67 1176.53 1192.29 1138.08 1141.79 1130.26C1152.47 1179.76 1192.85 1218.21 1243.35 1226.03ZM1102.56 1130.45C1052.66 1138.66 1012.86 1176.82 1002.2 1225.85C1052.1 1217.63 1091.9 1179.48 1102.56 1130.45ZM683.173 1226.12C632.37 1218.5 591.704 1179.9 581.016 1130.17C631.819 1137.79 672.485 1176.39 683.173 1226.12ZM1385.27 1093.23C1380.29 1036.32 1336.67 990.491 1280.8 982.127C1285.78 1039.03 1329.4 1084.86 1385.27 1093.23ZM1192.16 963.658C1162.02 948.56 1137.41 924.046 1122.19 893.973C1106.98 924.046 1082.37 948.56 1052.23 963.658C1082.37 978.757 1106.98 1003.27 1122.19 1033.34C1137.41 1003.27 1162.02 978.756 1192.16 963.658ZM1245.67 981.884C1188.9 989.573 1144.4 1035.87 1139.47 1093.47C1196.24 1085.78 1240.74 1039.48 1245.67 981.884ZM685.479 981.809C628.419 989.269 583.621 1035.72 578.709 1093.55C635.77 1086.09 680.568 1039.63 685.479 981.809ZM720.615 982.213C725.616 1038.89 768.942 1084.56 824.513 1093.14C819.511 1036.47 776.186 990.798 720.615 982.213ZM771.854 963.658C801.995 978.756 826.602 1003.27 841.816 1033.34C857.031 1003.27 881.637 978.756 911.778 963.658C881.637 948.56 857.031 924.046 841.816 893.973C826.602 924.046 801.995 948.56 771.854 963.658ZM1000.14 982.085C1056.18 990.34 1099.95 1036.27 1104.9 1093.31C1049.3 1085.25 1005.7 1040.1 1000.02 983.76C1000.06 983.203 1000.1 982.644 1000.14 982.085ZM859.081 1093.62C863.967 1035.68 908.895 989.144 966.092 981.778C966.136 982.44 966.185 983.101 966.237 983.76C960.475 1040.87 915.767 1086.48 859.081 1093.62ZM964.129 945.269C913.028 937.852 872.075 899.11 861.376 849.148C912.477 856.565 953.43 895.307 964.129 945.269ZM1283.16 944.813C1332.75 936.401 1372.27 898.398 1382.92 849.605C1333.33 858.016 1293.81 896.02 1283.16 944.813ZM1243.35 945.096C1232.67 895.595 1192.29 857.143 1141.79 849.322C1152.47 898.822 1192.85 937.274 1243.35 945.096ZM1102.56 849.507C1052.66 857.724 1012.86 895.879 1002.2 944.91C1052.1 936.693 1091.9 898.538 1102.56 849.507ZM581.016 849.233C591.704 898.965 632.37 937.563 683.173 945.184C672.485 895.452 631.819 856.854 581.016 849.233Z" fill="white" fill-opacity="0.2"/>
</g>
</g>
<defs>
<linearGradient id="paint0_linear_7023_29036" x1="512" y1="0" x2="512" y2="1366" gradientUnits="userSpaceOnUse">
<stop stop-color="#86FA9A"/>
<stop offset="1" stop-color="#41C495"/>
</linearGradient>
<clipPath id="clip0_7023_29036">
<rect width="1024" height="1366" fill="white"/>
</clipPath>
<clipPath id="clip1_7023_29036">
<rect width="630.85" height="1366" fill="white"/>
</clipPath>
<clipPath id="clip2_7023_29036">
<rect width="773" height="1682" fill="white" transform="translate(631)"/>
</clipPath>
</defs>
</svg>
