<svg width="42" height="42" viewBox="0 0 42 42" fill="none" xmlns="http://www.w3.org/2000/svg">
<path d="M36.3487 19.5039C36.3487 27.8169 30.3137 35.6029 22.0687 37.8809C21.5077 38.0339 20.8957 38.0339 20.3347 37.8809C12.0897 35.6029 6.05469 27.8169 6.05469 19.5039V12.0409C6.05469 10.6469 7.10871 9.06589 8.41771 8.53889L17.8867 4.66295C20.0117 3.79595 22.4087 3.79595 24.5337 4.66295L34.0027 8.53889C35.2947 9.06589 36.3657 10.6469 36.3657 12.0409L36.3487 19.5039Z" stroke="black" stroke-width="2.55" stroke-linecap="round" stroke-linejoin="round"/>
<path d="M21.2027 21.8503C23.0805 21.8503 24.6027 20.3281 24.6027 18.4503C24.6027 16.5725 23.0805 15.0503 21.2027 15.0503C19.325 15.0503 17.8027 16.5725 17.8027 18.4503C17.8027 20.3281 19.325 21.8503 21.2027 21.8503Z" stroke="black" stroke-width="2.55" stroke-miterlimit="10" stroke-linecap="round" stroke-linejoin="round"/>
<path d="M21.2031 21.8501V26.9501" stroke="black" stroke-width="2.55" stroke-miterlimit="10" stroke-linecap="round" stroke-linejoin="round"/>
</svg>
